<mxfile host="app.diagrams.net" agent="Mozilla/5.0 (Windows NT 10.0; Win64; x64) AppleWebKit/537.36 (KHTML, like Gecko) Chrome/131.0.0.0 Safari/537.36" version="26.0.2">
  <diagram name="PÃ¡gina-1" id="p0drwXTH5IGnVCuNl5FS">
    <mxGraphModel dx="1687" dy="868" grid="1" gridSize="10" guides="1" tooltips="1" connect="1" arrows="1" fold="1" page="1" pageScale="1" pageWidth="827" pageHeight="1169" math="0" shadow="0">
      <root>
        <mxCell id="0" />
        <mxCell id="1" parent="0" />
        <mxCell id="NHlDKeybOV_u9VaETVRw-1" value="categorias" style="rounded=0;whiteSpace=wrap;html=1;" parent="1" vertex="1">
          <mxGeometry x="70" y="705" width="120" height="60" as="geometry" />
        </mxCell>
        <mxCell id="csjogHEYkKYKX81BxBqE-32" style="edgeStyle=orthogonalEdgeStyle;rounded=0;orthogonalLoop=1;jettySize=auto;html=1;exitX=1;exitY=0.5;exitDx=0;exitDy=0;entryX=0;entryY=0.5;entryDx=0;entryDy=0;" edge="1" parent="1" target="NHlDKeybOV_u9VaETVRw-6">
          <mxGeometry relative="1" as="geometry">
            <mxPoint x="142" y="805" as="sourcePoint" />
            <mxPoint x="292.00000000000045" y="745" as="targetPoint" />
          </mxGeometry>
        </mxCell>
        <mxCell id="NHlDKeybOV_u9VaETVRw-2" value="id_categoria" style="ellipse;whiteSpace=wrap;html=1;" parent="1" vertex="1">
          <mxGeometry x="70" y="785" width="120" height="40" as="geometry" />
        </mxCell>
        <mxCell id="NHlDKeybOV_u9VaETVRw-3" value="nombre" style="ellipse;whiteSpace=wrap;html=1;" parent="1" vertex="1">
          <mxGeometry x="70" y="835" width="120" height="40" as="geometry" />
        </mxCell>
        <mxCell id="NHlDKeybOV_u9VaETVRw-4" value="monstruo" style="rounded=0;whiteSpace=wrap;html=1;" parent="1" vertex="1">
          <mxGeometry x="340" y="585" width="120" height="60" as="geometry" />
        </mxCell>
        <mxCell id="NHlDKeybOV_u9VaETVRw-99" style="edgeStyle=orthogonalEdgeStyle;rounded=0;orthogonalLoop=1;jettySize=auto;html=1;exitX=1;exitY=0.5;exitDx=0;exitDy=0;entryX=0;entryY=0.5;entryDx=0;entryDy=0;" parent="1" source="NHlDKeybOV_u9VaETVRw-5" target="NHlDKeybOV_u9VaETVRw-95" edge="1">
          <mxGeometry relative="1" as="geometry" />
        </mxCell>
        <mxCell id="csjogHEYkKYKX81BxBqE-30" style="edgeStyle=orthogonalEdgeStyle;rounded=0;orthogonalLoop=1;jettySize=auto;html=1;exitX=0;exitY=0.5;exitDx=0;exitDy=0;entryX=0.5;entryY=1;entryDx=0;entryDy=0;" edge="1" parent="1" source="NHlDKeybOV_u9VaETVRw-5" target="csjogHEYkKYKX81BxBqE-11">
          <mxGeometry relative="1" as="geometry" />
        </mxCell>
        <mxCell id="NHlDKeybOV_u9VaETVRw-5" value="id_monstruo" style="ellipse;whiteSpace=wrap;html=1;" parent="1" vertex="1">
          <mxGeometry x="340" y="665" width="120" height="40" as="geometry" />
        </mxCell>
        <mxCell id="NHlDKeybOV_u9VaETVRw-6" value="id_categoria" style="ellipse;whiteSpace=wrap;html=1;" parent="1" vertex="1">
          <mxGeometry x="340" y="715" width="120" height="40" as="geometry" />
        </mxCell>
        <mxCell id="NHlDKeybOV_u9VaETVRw-12" value="localizaciones" style="rounded=0;whiteSpace=wrap;html=1;" parent="1" vertex="1">
          <mxGeometry x="520" y="310" width="120" height="60" as="geometry" />
        </mxCell>
        <mxCell id="NHlDKeybOV_u9VaETVRw-13" value="habilidades" style="ellipse;whiteSpace=wrap;html=1;" parent="1" vertex="1">
          <mxGeometry x="340" y="815" width="120" height="40" as="geometry" />
        </mxCell>
        <mxCell id="csjogHEYkKYKX81BxBqE-33" style="edgeStyle=orthogonalEdgeStyle;rounded=0;orthogonalLoop=1;jettySize=auto;html=1;exitX=0;exitY=0.5;exitDx=0;exitDy=0;entryX=1;entryY=0.5;entryDx=0;entryDy=0;" edge="1" parent="1" source="NHlDKeybOV_u9VaETVRw-14" target="csjogHEYkKYKX81BxBqE-25">
          <mxGeometry relative="1" as="geometry" />
        </mxCell>
        <mxCell id="NHlDKeybOV_u9VaETVRw-14" value="id_localizacion" style="ellipse;whiteSpace=wrap;html=1;" parent="1" vertex="1">
          <mxGeometry x="520" y="390" width="120" height="40" as="geometry" />
        </mxCell>
        <mxCell id="NHlDKeybOV_u9VaETVRw-15" value="nombre" style="ellipse;whiteSpace=wrap;html=1;" parent="1" vertex="1">
          <mxGeometry x="520" y="440" width="120" height="40" as="geometry" />
        </mxCell>
        <mxCell id="NHlDKeybOV_u9VaETVRw-20" value="herramientas" style="rounded=0;whiteSpace=wrap;html=1;" parent="1" vertex="1">
          <mxGeometry x="487" y="40" width="120" height="60" as="geometry" />
        </mxCell>
        <mxCell id="NHlDKeybOV_u9VaETVRw-21" value="tipo de herramientas" style="rounded=0;whiteSpace=wrap;html=1;" parent="1" vertex="1">
          <mxGeometry x="687" y="40" width="120" height="60" as="geometry" />
        </mxCell>
        <mxCell id="csjogHEYkKYKX81BxBqE-21" style="edgeStyle=orthogonalEdgeStyle;rounded=0;orthogonalLoop=1;jettySize=auto;html=1;exitX=0;exitY=0.5;exitDx=0;exitDy=0;entryX=0.5;entryY=0;entryDx=0;entryDy=0;" edge="1" parent="1" source="NHlDKeybOV_u9VaETVRw-25" target="csjogHEYkKYKX81BxBqE-20">
          <mxGeometry relative="1" as="geometry" />
        </mxCell>
        <mxCell id="NHlDKeybOV_u9VaETVRw-25" value="id_herramienta" style="ellipse;whiteSpace=wrap;html=1;" parent="1" vertex="1">
          <mxGeometry x="487" y="120" width="120" height="40" as="geometry" />
        </mxCell>
        <mxCell id="NHlDKeybOV_u9VaETVRw-26" value="nombre" style="ellipse;whiteSpace=wrap;html=1;" parent="1" vertex="1">
          <mxGeometry x="487" y="170" width="120" height="40" as="geometry" />
        </mxCell>
        <mxCell id="csjogHEYkKYKX81BxBqE-17" style="edgeStyle=orthogonalEdgeStyle;rounded=0;orthogonalLoop=1;jettySize=auto;html=1;exitX=0;exitY=0.5;exitDx=0;exitDy=0;entryX=1;entryY=0.5;entryDx=0;entryDy=0;" edge="1" parent="1" source="NHlDKeybOV_u9VaETVRw-27" target="NHlDKeybOV_u9VaETVRw-62">
          <mxGeometry relative="1" as="geometry" />
        </mxCell>
        <mxCell id="NHlDKeybOV_u9VaETVRw-27" value="id_categoria" style="ellipse;whiteSpace=wrap;html=1;" parent="1" vertex="1">
          <mxGeometry x="687" y="120" width="120" height="40" as="geometry" />
        </mxCell>
        <mxCell id="NHlDKeybOV_u9VaETVRw-28" value="nombre" style="ellipse;whiteSpace=wrap;html=1;" parent="1" vertex="1">
          <mxGeometry x="687" y="170" width="120" height="40" as="geometry" />
        </mxCell>
        <mxCell id="NHlDKeybOV_u9VaETVRw-47" value="botines" style="rounded=0;whiteSpace=wrap;html=1;" parent="1" vertex="1">
          <mxGeometry x="530" y="825" width="120" height="60" as="geometry" />
        </mxCell>
        <mxCell id="NHlDKeybOV_u9VaETVRw-97" style="edgeStyle=orthogonalEdgeStyle;rounded=0;orthogonalLoop=1;jettySize=auto;html=1;exitX=1;exitY=0.5;exitDx=0;exitDy=0;entryX=1;entryY=0.5;entryDx=0;entryDy=0;" parent="1" source="NHlDKeybOV_u9VaETVRw-48" target="NHlDKeybOV_u9VaETVRw-96" edge="1">
          <mxGeometry relative="1" as="geometry">
            <Array as="points">
              <mxPoint x="680" y="930" />
              <mxPoint x="680" y="735" />
            </Array>
          </mxGeometry>
        </mxCell>
        <mxCell id="NHlDKeybOV_u9VaETVRw-48" value="id_botin" style="ellipse;whiteSpace=wrap;html=1;" parent="1" vertex="1">
          <mxGeometry x="530" y="910" width="120" height="40" as="geometry" />
        </mxCell>
        <mxCell id="NHlDKeybOV_u9VaETVRw-49" value="nombre" style="ellipse;whiteSpace=wrap;html=1;" parent="1" vertex="1">
          <mxGeometry x="530" y="960" width="120" height="40" as="geometry" />
        </mxCell>
        <mxCell id="NHlDKeybOV_u9VaETVRw-62" value="id_categoria" style="ellipse;whiteSpace=wrap;html=1;" parent="1" vertex="1">
          <mxGeometry x="487" y="220" width="120" height="40" as="geometry" />
        </mxCell>
        <mxCell id="NHlDKeybOV_u9VaETVRw-66" value="monstruos/&lt;div&gt;herramientas&lt;/div&gt;" style="rounded=0;whiteSpace=wrap;html=1;" parent="1" vertex="1">
          <mxGeometry x="247" y="40" width="120" height="60" as="geometry" />
        </mxCell>
        <mxCell id="NHlDKeybOV_u9VaETVRw-67" value="id_monstruo" style="ellipse;whiteSpace=wrap;html=1;" parent="1" vertex="1">
          <mxGeometry x="247" y="170" width="120" height="40" as="geometry" />
        </mxCell>
        <mxCell id="NHlDKeybOV_u9VaETVRw-68" value="id_herramienta debilidad" style="ellipse;whiteSpace=wrap;html=1;" parent="1" vertex="1">
          <mxGeometry x="247" y="120" width="120" height="40" as="geometry" />
        </mxCell>
        <mxCell id="NHlDKeybOV_u9VaETVRw-92" value="nombre" style="ellipse;whiteSpace=wrap;html=1;" parent="1" vertex="1">
          <mxGeometry x="340" y="765" width="120" height="40" as="geometry" />
        </mxCell>
        <mxCell id="NHlDKeybOV_u9VaETVRw-94" value="botines/monstruos" style="rounded=0;whiteSpace=wrap;html=1;" parent="1" vertex="1">
          <mxGeometry x="520" y="585" width="120" height="60" as="geometry" />
        </mxCell>
        <mxCell id="NHlDKeybOV_u9VaETVRw-95" value="id_monstruo" style="ellipse;whiteSpace=wrap;html=1;" parent="1" vertex="1">
          <mxGeometry x="520" y="665" width="120" height="40" as="geometry" />
        </mxCell>
        <mxCell id="NHlDKeybOV_u9VaETVRw-96" value="id_botin" style="ellipse;whiteSpace=wrap;html=1;" parent="1" vertex="1">
          <mxGeometry x="520" y="715" width="120" height="40" as="geometry" />
        </mxCell>
        <mxCell id="csjogHEYkKYKX81BxBqE-1" value="variaciones" style="rounded=0;whiteSpace=wrap;html=1;" vertex="1" parent="1">
          <mxGeometry x="20" y="40" width="120" height="60" as="geometry" />
        </mxCell>
        <mxCell id="csjogHEYkKYKX81BxBqE-2" value="id_variacion" style="ellipse;whiteSpace=wrap;html=1;" vertex="1" parent="1">
          <mxGeometry x="20" y="120" width="120" height="40" as="geometry" />
        </mxCell>
        <mxCell id="csjogHEYkKYKX81BxBqE-4" value="nombre" style="ellipse;whiteSpace=wrap;html=1;" vertex="1" parent="1">
          <mxGeometry x="20" y="170" width="120" height="40" as="geometry" />
        </mxCell>
        <mxCell id="csjogHEYkKYKX81BxBqE-5" value="descripcion" style="ellipse;whiteSpace=wrap;html=1;" vertex="1" parent="1">
          <mxGeometry x="20" y="220" width="120" height="40" as="geometry" />
        </mxCell>
        <mxCell id="csjogHEYkKYKX81BxBqE-6" value="id_monstruo" style="ellipse;whiteSpace=wrap;html=1;" vertex="1" parent="1">
          <mxGeometry x="20" y="270" width="120" height="40" as="geometry" />
        </mxCell>
        <mxCell id="csjogHEYkKYKX81BxBqE-14" style="edgeStyle=orthogonalEdgeStyle;rounded=0;orthogonalLoop=1;jettySize=auto;html=1;exitX=0;exitY=0.5;exitDx=0;exitDy=0;entryX=1;entryY=0.5;entryDx=0;entryDy=0;" edge="1" parent="1" source="csjogHEYkKYKX81BxBqE-11" target="csjogHEYkKYKX81BxBqE-6">
          <mxGeometry relative="1" as="geometry" />
        </mxCell>
        <mxCell id="csjogHEYkKYKX81BxBqE-28" style="edgeStyle=orthogonalEdgeStyle;rounded=0;orthogonalLoop=1;jettySize=auto;html=1;exitX=1;exitY=0.5;exitDx=0;exitDy=0;entryX=0;entryY=0.5;entryDx=0;entryDy=0;" edge="1" parent="1" source="csjogHEYkKYKX81BxBqE-11" target="csjogHEYkKYKX81BxBqE-26">
          <mxGeometry relative="1" as="geometry">
            <Array as="points">
              <mxPoint x="240" y="320" />
              <mxPoint x="240" y="460" />
            </Array>
          </mxGeometry>
        </mxCell>
        <mxCell id="csjogHEYkKYKX81BxBqE-29" style="edgeStyle=orthogonalEdgeStyle;rounded=0;orthogonalLoop=1;jettySize=auto;html=1;exitX=0.5;exitY=0;exitDx=0;exitDy=0;entryX=0;entryY=0.5;entryDx=0;entryDy=0;" edge="1" parent="1" source="csjogHEYkKYKX81BxBqE-11" target="NHlDKeybOV_u9VaETVRw-67">
          <mxGeometry relative="1" as="geometry" />
        </mxCell>
        <mxCell id="csjogHEYkKYKX81BxBqE-11" value="" style="rhombus;whiteSpace=wrap;html=1;" vertex="1" parent="1">
          <mxGeometry x="170" y="295" width="50" height="50" as="geometry" />
        </mxCell>
        <mxCell id="csjogHEYkKYKX81BxBqE-18" value="descripticion" style="ellipse;whiteSpace=wrap;html=1;" vertex="1" parent="1">
          <mxGeometry x="340" y="865" width="120" height="40" as="geometry" />
        </mxCell>
        <mxCell id="csjogHEYkKYKX81BxBqE-19" value="id_herramienta inmunidad" style="ellipse;whiteSpace=wrap;html=1;" vertex="1" parent="1">
          <mxGeometry x="247" y="220" width="120" height="40" as="geometry" />
        </mxCell>
        <mxCell id="csjogHEYkKYKX81BxBqE-22" style="edgeStyle=orthogonalEdgeStyle;rounded=0;orthogonalLoop=1;jettySize=auto;html=1;exitX=0;exitY=0.5;exitDx=0;exitDy=0;entryX=1;entryY=0.5;entryDx=0;entryDy=0;" edge="1" parent="1" source="csjogHEYkKYKX81BxBqE-20" target="NHlDKeybOV_u9VaETVRw-68">
          <mxGeometry relative="1" as="geometry" />
        </mxCell>
        <mxCell id="csjogHEYkKYKX81BxBqE-23" style="edgeStyle=orthogonalEdgeStyle;rounded=0;orthogonalLoop=1;jettySize=auto;html=1;exitX=0.5;exitY=1;exitDx=0;exitDy=0;entryX=1;entryY=0.5;entryDx=0;entryDy=0;" edge="1" parent="1" source="csjogHEYkKYKX81BxBqE-20" target="csjogHEYkKYKX81BxBqE-19">
          <mxGeometry relative="1" as="geometry" />
        </mxCell>
        <mxCell id="csjogHEYkKYKX81BxBqE-20" value="" style="rhombus;whiteSpace=wrap;html=1;" vertex="1" parent="1">
          <mxGeometry x="407" y="160" width="50" height="50" as="geometry" />
        </mxCell>
        <mxCell id="csjogHEYkKYKX81BxBqE-24" value="monstruos/&lt;div&gt;localizaciones&lt;/div&gt;" style="rounded=0;whiteSpace=wrap;html=1;" vertex="1" parent="1">
          <mxGeometry x="335" y="310" width="120" height="60" as="geometry" />
        </mxCell>
        <mxCell id="csjogHEYkKYKX81BxBqE-25" value="id_localizacion" style="ellipse;whiteSpace=wrap;html=1;" vertex="1" parent="1">
          <mxGeometry x="335" y="390" width="120" height="40" as="geometry" />
        </mxCell>
        <mxCell id="csjogHEYkKYKX81BxBqE-26" value="id_monstruo" style="ellipse;whiteSpace=wrap;html=1;" vertex="1" parent="1">
          <mxGeometry x="335" y="440" width="120" height="40" as="geometry" />
        </mxCell>
      </root>
    </mxGraphModel>
  </diagram>
</mxfile>
